Coordinates
version=1
nRows=30
nColumns=38
inDegrees=no

Units are S.I. units (second, meters, Newtons, ...)
If the header above contains a line with 'inDegrees', this indicates whether rotational values are in degrees (yes) or radians (no).

endheader
time	pelvis_tilt	pelvis_list	pelvis_rotation	pelvis_tx	pelvis_ty	pelvis_tz	hip_flexion_r	hip_adduction_r	hip_rotation_r	knee_angle_r	ankle_angle_r	subtalar_angle_r	mtp_angle_r	hip_flexion_l	hip_adduction_l	hip_rotation_l	knee_angle_l	ankle_angle_l	subtalar_angle_l	mtp_angle_l	lumbar_extension	lumbar_bending	lumbar_rotation	arm_flex_r	arm_add_r	arm_rot_r	elbow_flex_r	pro_sup_r	wrist_flex_r	wrist_dev_r	arm_flex_l	arm_add_l	arm_rot_l	elbow_flex_l	pro_sup_l	wrist_flex_l	wrist_dev_l
2.75833	-0.230786	-0.0310945	-0.0800321	1.21161	0.99656	-0.292435	0.715815	0.063065	-0.409574	-0.25974	0.15784	0.1	4.5289e-06	-0.0283224	-0.0119856	-0.186423	-1.39516	-0.260836	0.1	-5.25605e-07	0.00110372	0.118659	-0.173759	-0.913103	-0.0896168	-0.401919	1.47838	1.27489	0.00630181	-0.00866287	-0.445236	-0.299826	0.0773103	2.39972	1.57054	0.00718309	0.011921
2.76667	-0.214671	-0.0346831	-0.0826293	1.21142	0.991972	-0.292158	0.693132	0.0643228	-0.39804	-0.302819	0.169955	0.1	4.5289e-06	-0.0149843	-0.0288638	-0.197938	-1.51184	-0.233612	0.1	-5.25605e-07	-0.0186664	0.122672	-0.15544	-0.900426	-0.0917781	-0.384022	1.48752	1.282	0.00630181	-0.00866287	-0.472161	-0.292705	0.0776105	2.33512	1.57148	0.00718309	0.011921
2.775	-0.201004	-0.0395981	-0.0859857	1.21104	0.986681	-0.291762	0.675538	0.0666278	-0.380273	-0.361612	0.198535	0.1	4.5289e-06	0.00222481	-0.0491922	-0.209475	-1.62616	-0.20011	0.1	-5.25605e-07	-0.035789	0.128114	-0.135696	-0.883128	-0.0969781	-0.36372	1.49577	1.29367	0.00630181	-0.00866287	-0.499351	-0.28492	0.0749975	2.26578	1.57988	0.00718309	0.011921
2.78333	-0.190611	-0.0453797	-0.0894212	1.21034	0.980802	-0.291291	0.662897	0.0699937	-0.358002	-0.432387	0.24395	0.1	4.5289e-06	0.0254084	-0.0721141	-0.21837	-1.73767	-0.161203	0.1	-5.25605e-07	-0.0494799	0.134397	-0.115151	-0.860797	-0.104676	-0.341307	1.50354	1.30865	0.00630181	-0.00866287	-0.526214	-0.276775	0.0700788	2.19182	1.59327	0.00718309	0.011921
2.79167	-0.184052	-0.0516191	-0.0923562	1.20919	0.974568	-0.290793	0.65445	0.074455	-0.333275	-0.510483	0.304473	0.1	4.5289e-06	0.0565207	-0.0966391	-0.222531	-1.84572	-0.11834	0.1	-5.25605e-07	-0.0592516	0.140952	-0.094272	-0.833257	-0.114135	-0.317285	1.51146	1.32534	0.00630181	-0.00866287	-0.552135	-0.268592	0.0635667	2.11368	1.6079	0.00718309	0.011921
2.8	-0.181484	-0.0579176	-0.0943782	1.20753	0.968293	-0.290307	0.648681	0.0799482	-0.308035	-0.590535	0.376262	0.1	4.5289e-06	0.0969938	-0.121607	-0.220641	-1.94926	-0.0732139	0.1	-5.25605e-07	-0.0650221	0.14719	-0.0733219	-0.800679	-0.1245	-0.292406	1.5204	1.3422	0.00630181	-0.00866287	-0.576594	-0.26069	0.0561486	2.03219	1.61975	0.00718309	0.011921
2.80833	-0.182598	-0.0638346	-0.0952574	1.20537	0.962325	-0.289858	0.643353	0.0861751	-0.283835	-0.666942	0.453892	0.1	4.5289e-06	0.147448	-0.145679	-0.212278	-2.0468	-0.0274514	0.1	-5.25605e-07	-0.067138	0.15247	-0.0523814	-0.763666	-0.134882	-0.26768	1.53144	1.35808	0.00630181	-0.00866287	-0.599281	-0.253377	0.0483623	1.94872	1.62549	0.00718309	0.011921
2.81667	-0.186671	-0.0688453	-0.0949155	1.20277	0.956988	-0.289451	0.63578	0.0925147	-0.261685	-0.734489	0.531295	0.1	4.5289e-06	0.207565	-0.167385	-0.197924	-2.13641	0.0175696	0.1	-5.25605e-07	-0.0662831	0.156076	-0.0314141	-0.723281	-0.144437	-0.244332	1.54578	1.37244	0.00630181	-0.00866287	-0.620196	-0.246953	0.040508	1.86511	1.62327	0.00718309	0.011921
2.825	-0.192734	-0.0723321	-0.0933742	1.19982	0.952536	-0.289084	0.623283	0.0980101	-0.242128	-0.788987	0.602775	0.1	4.5289e-06	0.276152	-0.185238	-0.178863	-2.21591	0.0607724	0.1	-5.25605e-07	-0.0632824	0.157252	-0.0103543	-0.680999	-0.152449	-0.223684	1.56467	1.38545	0.00630181	-0.00866287	-0.639697	-0.24172	0.0326145	1.7837	1.61313	0.00718309	0.011921
2.83333	-0.199793	-0.0736357	-0.0907094	1.19666	0.949145	-0.288763	0.603683	0.101448	-0.225475	-0.827722	0.663784	0.1	4.5289e-06	0.351358	-0.197914	-0.156985	-2.28314	0.101331	0.1	-5.25605e-07	-0.0588717	0.15527	0.0108178	-0.638571	-0.158419	-0.206963	1.58918	1.39777	0.00630181	-0.00866287	-0.658477	-0.237968	0.0244633	1.70708	1.59683	0.00718309	0.011921
2.84167	-0.207032	-0.0721392	-0.0870223	1.1935	0.946932	-0.28851	0.575674	0.101551	-0.212035	-0.849579	0.711164	0.1	4.5289e-06	0.430965	-0.204453	-0.134526	-2.33619	0.13861	0.1	-5.25605e-07	-0.0535156	0.149547	0.0320391	-0.597819	-0.162122	-0.195072	1.62001	1.41028	0.00630181	-0.00866287	-0.677478	-0.235945	0.0156575	1.63796	1.57726	0.00718309	0.011921
2.85	-0.213932	-0.0673779	-0.0824282	1.19058	0.945955	-0.288355	0.538964	0.0972119	-0.202271	-0.854874	0.742992	0.1	4.5289e-06	0.512652	-0.204429	-0.113757	-2.37365	0.172087	0.1	-5.25605e-07	-0.0473424	0.139753	0.053157	-0.560408	-0.163651	-0.188404	1.65737	1.42371	0.00630181	-0.00866287	-0.697749	-0.235803	0.00571586	1.57878	1.55778	0.00718309	0.011921
2.85833	-0.220287	-0.0591323	-0.0770505	1.1881	0.946216	-0.288326	0.494196	0.0877006	-0.196826	-0.845007	0.758243	0.1	4.5289e-06	0.594218	-0.198021	-0.096685	-2.39472	0.201306	0.1	-5.25605e-07	-0.0402012	0.125875	0.073945	-0.527651	-0.163384	-0.186733	1.70086	1.43831	0.00630181	-0.00866287	-0.720294	-0.237556	-0.00582511	1.53147	1.54147	0.00718309	0.011921
2.86667	-0.226142	-0.0474728	-0.071013	1.18624	0.947657	-0.288437	0.442722	0.0728026	-0.196412	-0.822055	0.756476	0.1	4.5289e-06	0.673722	-0.185988	-0.0848065	-2.3993	0.225876	0.1	-5.25605e-07	-0.0317949	0.108209	0.0941251	-0.500373	-0.16191	-0.189231	1.74952	1.45378	0.00630181	-0.00866287	-0.745937	-0.241062	-0.0193171	1.49725	1.53053	0.00718309	0.011921
2.875	-0.231701	-0.032752	-0.0644345	1.18509	0.950175	-0.288691	0.386327	0.0528579	-0.201613	-0.788424	0.7376	0.1	4.5289e-06	0.74958	-0.169545	-0.0789705	-2.38792	0.245489	0.1	-5.25605e-07	-0.0218307	0.0873113	0.113389	-0.478874	-0.159913	-0.194601	1.8019	1.46927	0.00630181	-0.00866287	-0.775221	-0.246028	-0.0349372	1.4765	1.52585	0.00718309	0.011921
2.88333	-0.237236	-0.0155576	-0.0574255	1.18469	0.953631	-0.289083	0.326973	0.0286988	-0.212677	-0.746612	0.701795	0.1	4.5289e-06	0.820615	-0.150169	-0.0793431	-2.36165	0.259953	0.1	-5.25605e-07	-0.0101317	0.0639056	0.13142	-0.462969	-0.158053	-0.201291	1.85628	1.4837	0.00630181	-0.00866287	-0.808357	-0.252038	-0.0526672	1.46875	1.52691	0.00718309	0.011921
2.89167	-0.243037	0.0033515	-0.050091	1.18498	0.957855	-0.289601	0.266642	0.00154404	-0.229261	-0.699105	0.649605	0.1	4.5289e-06	0.886083	-0.129398	-0.0854698	-2.32194	0.269226	0.1	-5.25605e-07	0.00331598	0.0388107	0.147917	-0.452096	-0.156875	-0.207752	1.91084	1.49602	0.00630181	-0.00866287	-0.845207	-0.258576	-0.0723222	1.47284	1.53208	0.00718309	0.011921
2.9	-0.249384	0.0231215	-0.0425314	1.18585	0.962653	-0.290216	0.207239	-0.0271557	-0.250307	-0.648391	0.582171	0.1	4.5289e-06	0.94565	-0.10864	-0.0964008	-2.27046	0.273438	0.1	-5.25605e-07	0.0183712	0.0128892	0.162617	-0.445453	-0.156755	-0.212679	1.96382	1.50554	0.00630181	-0.00866287	-0.88529	-0.26505	-0.0936142	1.48705	1.53908	0.00718309	0.011921
2.90833	-0.256538	0.0428477	-0.0348479	1.18714	0.967809	-0.290891	0.150552	-0.0558821	-0.274	-0.597043	0.501508	0.1	4.5289e-06	0.999334	-0.0890419	-0.110871	-2.2089	0.272953	0.1	-5.25605e-07	0.0347689	-0.0129945	0.175312	-0.442128	-0.157879	-0.215192	2.01365	1.51215	0.00630181	-0.00866287	-0.927804	-0.270821	-0.116222	1.50926	1.54568	0.00718309	0.011921
2.91667	-0.264707	0.0616398	-0.0271527	1.18863	0.973099	-0.291581	0.09823	-0.0831638	-0.297788	-0.547812	0.410795	0.1	4.5289e-06	1.04738	-0.0714391	-0.127501	-2.13878	0.26843	0.1	-5.25605e-07	0.0521519	-0.0379998	0.185866	-0.441207	-0.16025	-0.214928	2.059	1.51635	0.00630181	-0.00866287	-0.971669	-0.27525	-0.139838	1.53722	1.5502	0.00718309	0.011921
2.925	-0.273996	0.0786859	-0.0195859	1.19011	0.978307	-0.292234	0.0517346	-0.107681	-0.318576	-0.503667	0.31448	0.1	4.5289e-06	1.09008	-0.0563579	-0.144996	-2.06139	0.260835	0.1	-5.25605e-07	0.070069	-0.0613476	0.194235	-0.441844	-0.163719	-0.212026	2.09876	1.51911	0.00630181	-0.00866287	-1.01558	-0.277765	-0.16417	1.56867	1.55173	0.00718309	0.011921
2.93333	-0.284332	0.0933126	-0.0123305	1.1914	0.983257	-0.292789	0.0122448	-0.128352	-0.333128	-0.467727	0.21809	0.1	4.5289e-06	1.12758	-0.044057	-0.162307	-1.97762	0.251393	0.1	-5.25605e-07	0.0879443	-0.0823682	0.200478	-0.443312	-0.168009	-0.207043	2.13206	1.5217	0.00630181	-0.00866287	-1.05811	-0.277949	-0.188918	1.60153	1.55018	0.00718309	0.011921
2.94167	-0.295403	0.105032	-0.00560792	1.19232	0.987836	-0.293177	-0.0194687	-0.144399	-0.33861	-0.443058	0.127675	0.1	4.5289e-06	1.15971	-0.0345705	-0.178735	-1.88801	0.241432	0.1	-5.25605e-07	0.105043	-0.100548	0.204754	-0.445042	-0.172763	-0.200814	2.15822	1.52541	0.00630181	-0.00866287	-1.09776	-0.275624	-0.213722	1.63403	1.54604	0.00718309	0.011921
2.95	-0.306629	0.113567	0.000354316	1.19279	0.991997	-0.293333	-0.0431613	-0.155358	-0.333099	-0.432353	0.0489373	0.1	4.5289e-06	1.18589	-0.0277535	-0.19397	-1.79274	0.232196	0.1	-5.25605e-07	0.120465	-0.115559	0.207299	-0.44666	-0.17757	-0.194306	2.17677	1.53128	0.00630181	-0.00866287	-1.13312	-0.270914	-0.238116	1.66476	1.54004	0.00718309	0.011921
2.95833	-0.317194	0.118852	0.00538471	1.19277	0.995751	-0.293218	-0.0591671	-0.161065	-0.316014	-0.437605	-0.0136873	0.1	4.5289e-06	1.20517	-0.0232964	-0.20806	-1.69177	0.224592	0.1	-5.25605e-07	0.133184	-0.12727	0.208373	-0.448018	-0.182011	-0.188461	2.18744	1.53991	0.00630181	-0.00866287	-1.16295	-0.264265	-0.261525	1.69274	1.53289	0.00718309	0.011921
2.96667	-0.326129	0.121022	0.00943593	1.19227	0.999144	-0.29283	-0.0683628	-0.161645	-0.288361	-0.459869	-0.0577621	0.1	4.5289e-06	1.21637	-0.0207219	-0.22133	-1.58498	0.218954	0.1	-5.25605e-07	0.14214	-0.135744	0.2082	-0.449188	-0.185692	-0.184049	2.19019	1.55118	0.00630181	-0.00866287	-1.18629	-0.256404	-0.283299	1.71742	1.52511	0.00718309	0.011921
2.975	-0.332439	0.120374	0.0126255	1.19136	1.00223	-0.292206	-0.0720427	-0.157493	-0.252639	-0.499161	-0.083155	0.1	4.5289e-06	1.21828	-0.0193905	-0.234277	-1.47234	0.214899	0.1	-5.25605e-07	0.146361	-0.141219	0.206914	-0.45043	-0.188292	-0.18155	2.1852	1.56413	0.00630181	-0.00866287	-1.20256	-0.248242	-0.302797	1.73861	1.51697	0.00718309	0.011921
2.98333	-0.335236	0.117337	0.0152209	1.19014	1.00505	-0.291419	-0.0717408	-0.149203	-0.212255	-0.554467	-0.0918599	0.1	4.5289e-06	1.20992	-0.0185632	-0.24749	-1.35416	0.211389	0.1	-5.25605e-07	0.145091	-0.144081	0.204538	-0.452109	-0.189598	-0.181081	2.17282	1.57708	0.00630181	-0.00866287	-1.21155	-0.240743	-0.319486	1.75647	1.5085	0.00718309	0.011921
2.99167	-0.333863	0.112439	0.017576	1.18871	1.00761	-0.29055	-0.0690239	-0.137548	-0.170916	-0.623915	-0.0873804	0.1	4.5289e-06	1.19079	-0.0174837	-0.261569	-1.23124	0.206939	0.1	-5.25605e-07	0.137892	-0.144825	0.201	-0.454606	-0.189544	-0.182396	2.15357	1.58787	0.00630181	-0.00866287	-1.21348	-0.234775	-0.333025	1.77138	1.49966	0.00718309	0.011921
3	-0.32799	0.106269	0.0200406	1.18717	1.00992	-0.289675	-0.0652868	-0.123473	-0.132111	-0.70506	-0.0738968	0.1	4.5289e-06	1.16099	-0.0154729	-0.277048	-1.10508	0.1999	0.1	-5.25605e-07	0.124731	-0.144018	0.196179	-0.458221	-0.188224	-0.18495	2.12801	1.59433	0.00630181	-0.00866287	-1.20888	-0.230993	-0.343313	1.78385	1.49046	0.00718309	0.011921
